<?xml version="1.0" encoding="UTF-8" standalone="no"?>
<svg
   xmlns:dc="http://purl.org/dc/elements/1.1/"
   xmlns:cc="http://creativecommons.org/ns#"
   xmlns:rdf="http://www.w3.org/1999/02/22-rdf-syntax-ns#"
   xmlns:svg="http://www.w3.org/2000/svg"
   xmlns="http://www.w3.org/2000/svg"
   id="svg4"
   width="24"
   height="24"
   viewBox="0 0 24 24"
   version="1.1">
  <metadata
     id="metadata10">
    <rdf:RDF>
      <cc:Work
         rdf:about="">
        <dc:format>image/svg+xml</dc:format>
        <dc:type
           rdf:resource="http://purl.org/dc/dcmitype/StillImage" />
        <dc:title></dc:title>
      </cc:Work>
    </rdf:RDF>
  </metadata>
  <defs
     id="defs8">
    <clipPath
       id="clipPath38-2"
       clipPathUnits="userSpaceOnUse">
      <path
         id="path40-0"
         d="m 295,264 h 32 v -32 h -32 z" />
    </clipPath>
  </defs>
  <path
     id="path2535"
     d="M 12 3 C 7.0412819 3 3 7.0412819 3 12 C 3 16.958718 7.0412819 21 12 21 C 16.958718 21 21 16.958718 21 12 C 21 7.0412819 16.958718 3 12 3 z M 12 5 C 15.877838 5 19 8.1221621 19 12 C 19 15.877838 15.877838 19 12 19 C 8.1221621 19 5 15.877838 5 12 C 5 8.1221621 8.1221621 5 12 5 z M 16.980469 8.9902344 A 1.0001 1.0001 0 0 0 16.292969 9.2929688 L 11 14.585938 L 9.7070312 13.292969 A 1.0001 1.0001 0 1 0 8.2929688 14.707031 L 10.292969 16.707031 A 1.0001 1.0001 0 0 0 11.707031 16.707031 L 17.707031 10.707031 A 1.0001 1.0001 0 0 0 16.980469 8.9902344 z "
     style="color:#000000;font-style:normal;font-variant:normal;font-weight:normal;font-stretch:normal;font-size:medium;line-height:normal;font-family:sans-serif;font-variant-ligatures:normal;font-variant-position:normal;font-variant-caps:normal;font-variant-numeric:normal;font-variant-alternates:normal;font-feature-settings:normal;text-indent:0;text-align:start;text-decoration:none;text-decoration-line:none;text-decoration-style:solid;text-decoration-color:#000000;letter-spacing:normal;word-spacing:normal;text-transform:none;writing-mode:lr-tb;direction:ltr;text-orientation:mixed;dominant-baseline:auto;baseline-shift:baseline;text-anchor:start;white-space:normal;shape-padding:0;clip-rule:nonzero;display:inline;overflow:visible;visibility:visible;opacity:1;isolation:auto;mix-blend-mode:normal;color-interpolation:sRGB;color-interpolation-filters:linearRGB;solid-color:#000000;solid-opacity:1;vector-effect:none;fill:#000000;fill-opacity:1;fill-rule:nonzero;stroke:none;stroke-width:2;stroke-linecap:round;stroke-linejoin:round;stroke-miterlimit:7;stroke-dasharray:none;stroke-dashoffset:0;stroke-opacity:1;paint-order:fill markers stroke;color-rendering:auto;image-rendering:auto;shape-rendering:auto;text-rendering:auto;enable-background:accumulate" />
</svg>
