<?xml version="1.0" encoding="UTF-8" standalone="no"?>
<svg
   xmlns:dc="http://purl.org/dc/elements/1.1/"
   xmlns:cc="http://creativecommons.org/ns#"
   xmlns:rdf="http://www.w3.org/1999/02/22-rdf-syntax-ns#"
   xmlns:svg="http://www.w3.org/2000/svg"
   xmlns="http://www.w3.org/2000/svg"
   id="svg4"
   width="24"
   height="24"
   viewBox="0 0 24 24"
   version="1.1">
  <metadata
     id="metadata10">
    <rdf:RDF>
      <cc:Work
         rdf:about="">
        <dc:format>image/svg+xml</dc:format>
        <dc:type
           rdf:resource="http://purl.org/dc/dcmitype/StillImage" />
        <dc:title></dc:title>
      </cc:Work>
    </rdf:RDF>
  </metadata>
  <defs
     id="defs8">
    <clipPath
       id="clipPath38-2"
       clipPathUnits="userSpaceOnUse">
      <path
         id="path40-0"
         d="m 295,264 h 32 v -32 h -32 z" />
    </clipPath>
    <clipPath
       clipPathUnits="userSpaceOnUse"
       id="clipPath5712">
      <path
         d="m 328,400.761 32,0 0,-32 -32,0 0,32 z"
         id="path5714" />
    </clipPath>
    <clipPath
       clipPathUnits="userSpaceOnUse"
       id="clipPath5922">
      <path
         d="m 130,366.761 32,0 0,-32 -32,0 0,32 z"
         id="path5924" />
    </clipPath>
    <clipPath
       id="clipPath4200-0"
       clipPathUnits="userSpaceOnUse">
      <path
         id="path4202-9"
         d="m 229,230.761 32,0 0,-32 -32,0 0,32 z" />
    </clipPath>
    <clipPath
       id="clipPath4228-7"
       clipPathUnits="userSpaceOnUse">
      <path
         id="path4230-7"
         d="m 262,230.761 32,0 0,-32 -32,0 0,32 z" />
    </clipPath>
    <clipPath
       id="clipEmfPath1"
       clipPathUnits="userSpaceOnUse">
      <path
         id="path3402"
         d="m 0,0 32.0248,0 0,32.0248 L 0,32.0248 0,0 Z" />
    </clipPath>
    <pattern
       y="0"
       x="0"
       height="6"
       width="6"
       patternUnits="userSpaceOnUse"
       id="EMFhbasepattern" />
    <clipPath
       id="clipEmfPath1-0"
       clipPathUnits="userSpaceOnUse">
      <path
         id="path3426"
         d="m 0,0 32.0248,0 0,32.0248 L 0,32.0248 0,0 Z" />
    </clipPath>
    <pattern
       y="0"
       x="0"
       height="6"
       width="6"
       patternUnits="userSpaceOnUse"
       id="EMFhbasepattern-7" />
    <clipPath
       id="clipEmfPath1-8"
       clipPathUnits="userSpaceOnUse">
      <path
         id="path3450"
         d="m 0,0 32.0248,0 0,32.0248 L 0,32.0248 0,0 Z" />
    </clipPath>
    <pattern
       y="0"
       x="0"
       height="6"
       width="6"
       patternUnits="userSpaceOnUse"
       id="EMFhbasepattern-1" />
    <clipPath
       id="clipEmfPath1-9"
       clipPathUnits="userSpaceOnUse">
      <path
         id="path3474"
         d="m 0,0 32.0248,0 0,32.0248 L 0,32.0248 0,0 Z" />
    </clipPath>
    <pattern
       y="0"
       x="0"
       height="6"
       width="6"
       patternUnits="userSpaceOnUse"
       id="EMFhbasepattern-4" />
    <clipPath
       id="clipPath5488-9"
       clipPathUnits="userSpaceOnUse">
      <path
         id="path5490-5"
         d="m 163,468.761 32,0 0,-32 -32,0 0,32 z" />
    </clipPath>
    <clipPath
       id="clipEmfPath1-5"
       clipPathUnits="userSpaceOnUse">
      <path
         id="path3512"
         d="m 0,0 32.0248,0 0,32.0248 L 0,32.0248 0,0 Z" />
    </clipPath>
    <pattern
       y="0"
       x="0"
       height="6"
       width="6"
       patternUnits="userSpaceOnUse"
       id="EMFhbasepattern-5" />
    <clipPath
       id="clipPath5964-2"
       clipPathUnits="userSpaceOnUse">
      <path
         id="path5966-0"
         d="m 97,366.761 32,0 0,-32 -32,0 0,32 z" />
    </clipPath>
    <clipPath
       id="clipPath4746-9"
       clipPathUnits="userSpaceOnUse">
      <path
         id="path4748-4"
         d="m 295,94.7607 32,0 0,-32 -32,0 0,32 z" />
    </clipPath>
    <clipPath
       id="clipPath4746-9-0"
       clipPathUnits="userSpaceOnUse">
      <path
         id="path4748-4-8"
         d="m 295,94.7607 32,0 0,-32 -32,0 0,32 z" />
    </clipPath>
    <clipPath
       id="clipPath4466-7"
       clipPathUnits="userSpaceOnUse">
      <path
         id="path4468-7"
         d="m 295,162.761 32,0 0,-32 -32,0 0,32 z" />
    </clipPath>
    <clipPath
       id="clipPath4480-2"
       clipPathUnits="userSpaceOnUse">
      <path
         id="path4482-1"
         d="m 229,162.761 32,0 0,-32 -32,0 0,32 z" />
    </clipPath>
    <clipPath
       id="clipPath4480-2-1"
       clipPathUnits="userSpaceOnUse">
      <path
         id="path4482-1-4"
         d="m 229,162.761 32,0 0,-32 -32,0 0,32 z" />
    </clipPath>
    <clipPath
       id="clipPath5754-9"
       clipPathUnits="userSpaceOnUse">
      <path
         id="path5756-4"
         d="m 262,400.761 32,0 0,-32 -32,0 0,32 z" />
    </clipPath>
    <clipPath
       id="clipEmfPath1-90"
       clipPathUnits="userSpaceOnUse">
      <path
         id="path4213"
         d="m 0,0 32.0248,0 0,32.0248 L 0,32.0248 0,0 Z" />
    </clipPath>
    <pattern
       y="0"
       x="0"
       height="6"
       width="6"
       patternUnits="userSpaceOnUse"
       id="EMFhbasepattern-9" />
    <clipPath
       id="clipEmfPath1-4"
       clipPathUnits="userSpaceOnUse">
      <path
         id="path4237"
         d="m 0,0 32.0248,0 0,32.0248 L 0,32.0248 0,0 Z" />
    </clipPath>
    <pattern
       y="0"
       x="0"
       height="6"
       width="6"
       patternUnits="userSpaceOnUse"
       id="EMFhbasepattern-2" />
    <clipPath
       id="clipEmfPath1-6"
       clipPathUnits="userSpaceOnUse">
      <path
         id="path4261"
         d="m 0,0 32.0248,0 0,32.0248 L 0,32.0248 0,0 Z" />
    </clipPath>
    <pattern
       y="0"
       x="0"
       height="6"
       width="6"
       patternUnits="userSpaceOnUse"
       id="EMFhbasepattern-72" />
    <clipPath
       id="clipEmfPath1-93"
       clipPathUnits="userSpaceOnUse">
      <path
         id="path4285"
         d="m 0,0 32.0248,0 0,32.0248 L 0,32.0248 0,0 Z" />
    </clipPath>
    <pattern
       y="0"
       x="0"
       height="6"
       width="6"
       patternUnits="userSpaceOnUse"
       id="EMFhbasepattern-75" />
    <clipPath
       id="clipPath4186-7"
       clipPathUnits="userSpaceOnUse">
      <path
         id="path4188-5"
         d="m 295,230.761 32,0 0,-32 -32,0 0,32 z" />
    </clipPath>
    <clipPath
       id="clipEmfPath1-47"
       clipPathUnits="userSpaceOnUse">
      <path
         id="path4329"
         d="m 0,0 32.0248,0 0,32.0248 L 0,32.0248 0,0 Z" />
    </clipPath>
    <pattern
       y="0"
       x="0"
       height="6"
       width="6"
       patternUnits="userSpaceOnUse"
       id="EMFhbasepattern-41" />
    <clipPath
       id="clipPath5796-9"
       clipPathUnits="userSpaceOnUse">
      <path
         id="path5798-0"
         d="m 64,400.761 32,0 0,-32 -32,0 0,32 z" />
    </clipPath>
    <clipPath
       id="clipEmfPath1-1"
       clipPathUnits="userSpaceOnUse">
      <path
         id="path4217"
         d="m 0,0 32.0248,0 0,32.0248 L 0,32.0248 0,0 Z" />
    </clipPath>
    <pattern
       y="0"
       x="0"
       height="6"
       width="6"
       patternUnits="userSpaceOnUse"
       id="EMFhbasepattern-6" />
    <clipPath
       id="clipPath5768-0"
       clipPathUnits="userSpaceOnUse">
      <path
         id="path5770-7"
         d="m 130,400.761 32,0 0,-32 -32,0 0,32 z" />
    </clipPath>
    <clipPath
       id="clipPath906"
       clipPathUnits="userSpaceOnUse">
      <path
         id="path908"
         d="m 196,60 32,0 0,-32 -32,0 0,32 z" />
    </clipPath>
    <clipPath
       id="clipPath654-0"
       clipPathUnits="userSpaceOnUse">
      <path
         id="path656-6"
         d="m 130,128 32,0 0,-32 -32,0 0,32 z" />
    </clipPath>
    <clipPath
       id="clipPath654-0-3"
       clipPathUnits="userSpaceOnUse">
      <path
         id="path656-6-2"
         d="m 130,128 h 32 V 96 h -32 z" />
    </clipPath>
  </defs>
  <path
     id="path3812-7"
     d="M 14 4 A 1.0000999 1.0000999 0 0 0 13.302734 5.7167969 L 15.585938 8 L 9.625 8 A 1.0001 1.0001 0 0 0 9.3828125 8.0273438 C 8.4525919 8.097692 7.6371581 8.5391206 7.0527344 9.1503906 C 6.4168541 9.815481 6 10.680217 6 11.625 L 6 15.375 C 6 16.409442 6.4853003 17.311385 7.1503906 17.947266 C 7.7605046 18.530584 8.5426864 18.912631 9.3964844 18.974609 A 1.0001 1.0001 0 0 0 9.625 19 L 15.625 19.005859 A 1.0001 1.0001 0 1 0 15.625 17.005859 L 9.6269531 17 A 1.0001 1.0001 0 0 0 9.625 17 C 9.3157831 17 8.8671128 16.819245 8.5332031 16.5 C 8.1992935 16.180755 8 15.770058 8 15.375 L 8 11.625 C 8 11.315783 8.1807553 10.867113 8.5 10.533203 C 8.8192447 10.199293 9.2299422 10 9.625 10 L 15.585938 10 L 13.302734 12.283203 A 1.0000999 1.0000999 0 1 0 14.716797 13.697266 L 18.707031 9.7070312 A 1.0000999 1.0000999 0 0 0 18.707031 8.2929688 L 14.716797 4.3027344 A 1.0000999 1.0000999 0 0 0 14 4 z "
     style="color:#000000;font-style:normal;font-variant:normal;font-weight:normal;font-stretch:normal;font-size:medium;line-height:normal;font-family:sans-serif;font-variant-ligatures:normal;font-variant-position:normal;font-variant-caps:normal;font-variant-numeric:normal;font-variant-alternates:normal;font-feature-settings:normal;text-indent:0;text-align:start;text-decoration:none;text-decoration-line:none;text-decoration-style:solid;text-decoration-color:#000000;letter-spacing:normal;word-spacing:normal;text-transform:none;writing-mode:lr-tb;direction:ltr;text-orientation:mixed;dominant-baseline:auto;baseline-shift:baseline;text-anchor:start;white-space:normal;shape-padding:0;clip-rule:nonzero;display:inline;overflow:visible;visibility:visible;opacity:1;isolation:auto;mix-blend-mode:normal;color-interpolation:sRGB;color-interpolation-filters:linearRGB;solid-color:#000000;solid-opacity:1;vector-effect:none;fill:#000000;fill-opacity:1;fill-rule:nonzero;stroke:none;stroke-width:1.99999988;stroke-linecap:round;stroke-linejoin:round;stroke-miterlimit:10;stroke-dasharray:none;stroke-dashoffset:0;stroke-opacity:1;color-rendering:auto;image-rendering:auto;shape-rendering:auto;text-rendering:auto;enable-background:accumulate" />
</svg>
