<?xml version="1.0" encoding="UTF-8" standalone="no"?>
<svg
   xmlns:dc="http://purl.org/dc/elements/1.1/"
   xmlns:cc="http://creativecommons.org/ns#"
   xmlns:rdf="http://www.w3.org/1999/02/22-rdf-syntax-ns#"
   xmlns:svg="http://www.w3.org/2000/svg"
   xmlns="http://www.w3.org/2000/svg"
   id="svg4"
   width="24"
   height="24"
   viewBox="0 0 24 24"
   version="1.1">
  <metadata
     id="metadata10">
    <rdf:RDF>
      <cc:Work
         rdf:about="">
        <dc:format>image/svg+xml</dc:format>
        <dc:type
           rdf:resource="http://purl.org/dc/dcmitype/StillImage" />
        <dc:title></dc:title>
      </cc:Work>
    </rdf:RDF>
  </metadata>
  <defs
     id="defs8">
    <clipPath
       id="clipPath38-2"
       clipPathUnits="userSpaceOnUse">
      <path
         id="path40-0"
         d="m 295,264 h 32 v -32 h -32 z" />
    </clipPath>
  </defs>
  <path
     id="path2467"
     d="M 8.6875 3 A 1.0001 1.0001 0 0 0 8.296875 3.078125 A 1.0001 1.0001 0 0 0 7.9804688 3.2910156 L 3.2929688 7.9785156 A 1.0001 1.0001 0 0 0 3 8.6835938 L 3 15.3125 A 1.0001 1.0001 0 0 0 3.2929688 16.019531 L 7.9804688 20.707031 A 1.0001 1.0001 0 0 0 8.6855469 21 L 15.314453 21 A 1.0001 1.0001 0 0 0 16.021484 20.707031 L 20.705078 16.021484 A 1.0001 1.0001 0 0 0 21.001953 15.314453 L 21.001953 8.6855469 A 1.0001 1.0001 0 0 0 20.708984 7.9785156 L 16.021484 3.2910156 A 1.0001 1.0001 0 0 0 15.3125 3 L 8.6875 3 z M 9.1015625 4.9980469 L 14.898438 5.0019531 L 18.998047 9.1015625 L 19 14.902344 L 14.900391 19 L 9.0996094 19.001953 L 5 14.898438 L 5 9.1035156 L 9.1015625 4.9980469 z M 11.984375 7 A 1.0000999 1.0000999 0 0 0 11 8.0136719 L 11 12.984375 A 1.0000999 1.0000999 0 1 0 13 12.984375 L 13 8.0136719 A 1.0000999 1.0000999 0 0 0 11.984375 7 z M 11.958984 15 A 1 1 0 0 0 12 17 A 1 1 0 0 0 12 15 A 1 1 0 0 0 11.958984 15 z "
     style="color:#000000;font-style:normal;font-variant:normal;font-weight:normal;font-stretch:normal;font-size:medium;line-height:normal;font-family:sans-serif;font-variant-ligatures:normal;font-variant-position:normal;font-variant-caps:normal;font-variant-numeric:normal;font-variant-alternates:normal;font-feature-settings:normal;text-indent:0;text-align:start;text-decoration:none;text-decoration-line:none;text-decoration-style:solid;text-decoration-color:#000000;letter-spacing:normal;word-spacing:normal;text-transform:none;writing-mode:lr-tb;direction:ltr;text-orientation:mixed;dominant-baseline:auto;baseline-shift:baseline;text-anchor:start;white-space:normal;shape-padding:0;clip-rule:nonzero;display:inline;overflow:visible;visibility:visible;opacity:1;isolation:auto;mix-blend-mode:normal;color-interpolation:sRGB;color-interpolation-filters:linearRGB;solid-color:#000000;solid-opacity:1;vector-effect:none;fill:#000000;fill-opacity:1;fill-rule:nonzero;stroke:none;stroke-width:2;stroke-linecap:round;stroke-linejoin:round;stroke-miterlimit:10;stroke-dasharray:none;stroke-dashoffset:0;stroke-opacity:1;paint-order:fill markers stroke;color-rendering:auto;image-rendering:auto;shape-rendering:auto;text-rendering:auto;enable-background:accumulate" />
</svg>
